<mxfile host="app.diagrams.net" modified="2023-04-25T10:00:57.408Z" agent="Mozilla/5.0 (Windows NT 10.0; Win64; x64; rv:109.0) Gecko/20100101 Firefox/112.0" etag="8pWPt64b4gyk3SgVSYOt" version="21.2.1" type="github">
  <diagram name="Page-1" id="w7yXFqWaAwTJAUr7LiBQ">
    <mxGraphModel dx="1251" dy="623" grid="0" gridSize="10" guides="1" tooltips="1" connect="1" arrows="1" fold="1" page="0" pageScale="1" pageWidth="827" pageHeight="1169" math="0" shadow="0">
      <root>
        <mxCell id="0" />
        <mxCell id="1" parent="0" />
        <mxCell id="zRvWQ_bZDN175Up8n49A-1" value="Normal Battle" style="swimlane;whiteSpace=wrap;html=1;" parent="1" vertex="1">
          <mxGeometry x="70" y="50" width="670" height="490" as="geometry" />
        </mxCell>
        <mxCell id="zRvWQ_bZDN175Up8n49A-2" value="Enemy" style="shape=umlActor;verticalLabelPosition=bottom;verticalAlign=top;html=1;outlineConnect=0;" parent="zRvWQ_bZDN175Up8n49A-1" vertex="1">
          <mxGeometry x="285" y="60" width="100" height="200" as="geometry" />
        </mxCell>
        <mxCell id="zRvWQ_bZDN175Up8n49A-5" value="ACTION 1" style="rounded=0;whiteSpace=wrap;html=1;" parent="zRvWQ_bZDN175Up8n49A-1" vertex="1">
          <mxGeometry x="20" y="370" width="120" height="60" as="geometry" />
        </mxCell>
        <mxCell id="zRvWQ_bZDN175Up8n49A-8" value="ACTION 4" style="rounded=0;whiteSpace=wrap;html=1;" parent="zRvWQ_bZDN175Up8n49A-1" vertex="1">
          <mxGeometry x="520" y="370" width="120" height="60" as="geometry" />
        </mxCell>
        <mxCell id="zRvWQ_bZDN175Up8n49A-7" value="ACTION 3" style="rounded=0;whiteSpace=wrap;html=1;" parent="zRvWQ_bZDN175Up8n49A-1" vertex="1">
          <mxGeometry x="350" y="370" width="120" height="60" as="geometry" />
        </mxCell>
        <mxCell id="zRvWQ_bZDN175Up8n49A-6" value="ACTION 2" style="rounded=0;whiteSpace=wrap;html=1;" parent="zRvWQ_bZDN175Up8n49A-1" vertex="1">
          <mxGeometry x="190" y="370" width="120" height="60" as="geometry" />
        </mxCell>
        <mxCell id="zRvWQ_bZDN175Up8n49A-9" value="ENEMY HP" style="rounded=0;whiteSpace=wrap;html=1;" parent="zRvWQ_bZDN175Up8n49A-1" vertex="1">
          <mxGeometry x="150" y="30" width="380" height="20" as="geometry" />
        </mxCell>
        <mxCell id="zRvWQ_bZDN175Up8n49A-13" value="" style="rounded=0;whiteSpace=wrap;html=1;" parent="zRvWQ_bZDN175Up8n49A-1" vertex="1">
          <mxGeometry x="290" y="330" width="20" height="20" as="geometry" />
        </mxCell>
        <mxCell id="zRvWQ_bZDN175Up8n49A-12" value="HP" style="text;html=1;align=center;verticalAlign=middle;resizable=0;points=[];autosize=1;strokeColor=none;fillColor=none;" parent="zRvWQ_bZDN175Up8n49A-1" vertex="1">
          <mxGeometry x="260" y="325" width="40" height="30" as="geometry" />
        </mxCell>
        <mxCell id="zRvWQ_bZDN175Up8n49A-14" value="&#39;HP LEFT&#39;/&#39;TOTAL HP&#39;" style="text;html=1;align=center;verticalAlign=middle;resizable=0;points=[];autosize=1;strokeColor=none;fillColor=none;" parent="zRvWQ_bZDN175Up8n49A-1" vertex="1">
          <mxGeometry x="310" y="325" width="140" height="30" as="geometry" />
        </mxCell>
        <mxCell id="zRvWQ_bZDN175Up8n49A-15" value="&#39;HP LEFT&#39;/&#39;TOTAL HP&#39;" style="text;html=1;align=center;verticalAlign=middle;resizable=0;points=[];autosize=1;strokeColor=none;fillColor=none;" parent="zRvWQ_bZDN175Up8n49A-1" vertex="1">
          <mxGeometry x="530" y="25" width="140" height="30" as="geometry" />
        </mxCell>
        <mxCell id="zRvWQ_bZDN175Up8n49A-16" value="&#39;ENEMY.NAME&#39;" style="text;html=1;align=center;verticalAlign=middle;resizable=0;points=[];autosize=1;strokeColor=none;fillColor=none;" parent="zRvWQ_bZDN175Up8n49A-1" vertex="1">
          <mxGeometry x="30" y="25" width="100" height="30" as="geometry" />
        </mxCell>
        <mxCell id="zRvWQ_bZDN175Up8n49A-10" value="&#39;USER.NAME&#39;" style="text;html=1;align=center;verticalAlign=middle;resizable=0;points=[];autosize=1;strokeColor=none;fillColor=none;" parent="zRvWQ_bZDN175Up8n49A-1" vertex="1">
          <mxGeometry x="90" y="325" width="90" height="30" as="geometry" />
        </mxCell>
        <mxCell id="zRvWQ_bZDN175Up8n49A-11" value="LV &#39;#&#39;" style="text;html=1;align=center;verticalAlign=middle;resizable=0;points=[];autosize=1;strokeColor=none;fillColor=none;" parent="zRvWQ_bZDN175Up8n49A-1" vertex="1">
          <mxGeometry x="200" y="325" width="50" height="30" as="geometry" />
        </mxCell>
      </root>
    </mxGraphModel>
  </diagram>
</mxfile>
